<svg id="svg" xmlns="http://www.w3.org/2000/svg" xmlns:xlink="http://www.w3.org/1999/xlink" width="400" height="211.6" viewBox="0, 0, 400,211.6"><g id="svgg"><path id="path0" d="M200.600 0.213 C 182.916 2.147,167.315 12.538,159.429 27.636 C 156.412 33.413,154.330 40.732,153.523 48.400 C 153.460 49.005,153.347 50.040,153.273 50.700 C 152.791 54.983,153.265 64.677,154.314 72.000 C 154.549 73.644,151.682 67.251,150.591 63.700 C 149.091 58.818,148.001 50.548,148.297 46.302 C 148.572 42.368,148.646 41.585,148.921 39.712 C 149.999 32.354,152.876 24.665,157.232 17.500 C 157.499 17.060,157.894 16.395,158.109 16.021 C 158.324 15.648,159.131 14.478,159.903 13.421 C 161.690 10.973,162.118 10.305,161.771 10.510 C 161.622 10.598,160.465 11.435,159.200 12.370 C 151.230 18.262,146.667 23.286,143.440 29.721 C 135.069 46.414,135.499 66.566,144.713 89.300 C 144.991 89.987,144.321 89.314,143.065 87.645 C 137.230 79.892,133.481 70.489,131.984 59.848 C 131.651 57.485,131.507 57.685,131.225 60.900 C 130.034 74.488,133.269 89.075,139.961 100.300 C 141.730 103.267,142.513 104.500,143.427 105.755 C 174.949 149.055,240.603 143.382,262.102 95.500 C 262.604 94.381,263.600 91.669,263.600 91.419 C 263.600 91.358,262.498 92.441,261.150 93.826 C 257.436 97.644,254.130 100.257,249.454 103.074 C 248.421 103.696,246.823 104.482,243.500 106.005 C 243.280 106.106,242.470 106.422,241.700 106.707 C 205.596 120.067,166.521 88.184,177.716 54.500 C 185.122 32.216,205.599 24.689,220.113 38.915 C 233.245 51.787,226.674 72.836,208.714 75.432 C 205.771 75.858,207.062 76.370,211.500 76.537 C 226.676 77.109,235.385 68.040,233.816 53.300 C 233.392 49.320,231.158 41.788,229.944 40.245 C 229.833 40.105,229.778 39.955,229.821 39.912 C 229.969 39.765,232.099 42.628,233.245 44.515 C 238.522 53.200,238.937 63.808,234.422 74.571 L 233.805 76.042 234.353 75.909 C 239.728 74.601,244.966 59.676,243.607 49.539 C 242.590 41.954,237.700 32.024,232.704 27.400 C 230.247 25.126,233.976 27.071,238.334 30.337 C 246.392 36.375,252.200 47.708,252.200 57.395 C 252.200 58.767,252.465 58.783,253.052 57.446 C 257.583 47.131,254.647 31.854,245.914 20.300 C 240.130 12.647,228.609 5.024,218.000 1.829 C 212.745 0.246,206.012 -0.379,200.600 0.213 " stroke="none" fill="#0d49b8" fill-rule="evenodd"></path><path id="path1" d="M187.600 94.263 C 187.600 94.297,187.893 94.590,188.250 94.913 L 188.900 95.500 188.313 94.850 C 187.765 94.244,187.600 94.108,187.600 94.263 M185.000 179.200 L 185.000 200.200 187.500 200.200 L 190.000 200.200 190.000 179.200 L 190.000 158.200 187.500 158.200 L 185.000 158.200 185.000 179.200 M395.200 179.200 L 395.200 200.200 397.600 200.200 L 400.000 200.200 400.000 179.200 L 400.000 158.200 397.600 158.200 L 395.200 158.200 395.200 179.200 M173.001 160.568 C 171.632 161.937,171.852 164.700,173.393 165.497 C 176.154 166.924,178.889 163.832,177.233 161.154 C 176.417 159.833,174.062 159.507,173.001 160.568 M237.976 160.301 C 236.550 161.076,236.364 163.939,237.662 165.129 C 239.298 166.629,241.978 165.726,242.330 163.556 C 242.759 160.909,240.275 159.051,237.976 160.301 M356.776 160.301 C 355.961 160.744,355.540 161.840,355.643 163.256 C 355.893 166.709,360.757 166.789,361.145 163.347 C 361.436 160.771,359.016 159.084,356.776 160.301 M0.000 180.300 L 0.000 200.200 10.300 200.200 L 20.600 200.200 20.600 197.900 L 20.600 195.600 12.800 195.600 L 5.000 195.600 5.000 178.000 L 5.000 160.400 2.500 160.400 L 0.000 160.400 0.000 180.300 M117.400 162.700 L 117.400 165.000 122.600 165.000 L 127.800 165.000 127.800 182.600 L 127.800 200.200 130.400 200.200 L 133.000 200.200 133.000 182.600 L 133.000 165.000 138.200 165.000 L 143.400 165.000 143.400 162.700 L 143.400 160.400 130.400 160.400 L 117.400 160.400 117.400 162.700 M210.600 180.300 L 210.600 200.200 213.200 200.200 L 215.800 200.200 215.800 191.400 L 215.800 182.600 222.500 182.600 L 229.200 182.600 229.200 180.400 L 229.200 178.200 222.500 178.200 L 215.800 178.200 215.800 171.600 L 215.800 165.000 223.600 165.000 L 231.400 165.000 231.400 162.700 L 231.400 160.400 221.000 160.400 L 210.600 160.400 210.600 180.300 M33.906 170.200 C 30.565 170.803,27.755 173.011,26.178 176.271 C 23.990 180.793,24.027 190.200,26.250 194.657 C 30.524 203.230,43.011 202.511,46.383 193.498 C 47.597 190.255,47.817 181.896,46.778 178.497 C 44.928 172.448,39.792 169.138,33.906 170.200 M63.400 170.279 C 61.893 170.614,60.334 171.456,59.297 172.493 C 58.306 173.484,58.200 173.406,58.200 171.684 L 58.200 170.600 55.800 170.600 L 53.400 170.600 53.400 185.400 L 53.400 200.200 55.900 200.200 L 58.400 200.200 58.402 189.550 L 58.404 178.900 58.980 177.896 C 61.345 173.773,66.110 173.349,67.842 177.107 C 68.299 178.098,68.300 178.119,68.359 189.150 L 68.419 200.200 70.923 200.200 L 73.427 200.200 73.347 188.850 C 73.261 176.529,73.237 176.243,72.094 173.989 C 70.490 170.823,67.220 169.428,63.400 170.279 M87.343 170.208 C 82.204 171.072,79.739 175.386,79.463 184.000 C 79.237 191.015,80.207 195.184,82.709 197.968 C 85.668 201.259,91.757 201.543,94.894 198.537 L 95.845 197.626 95.760 200.363 C 95.689 202.665,95.603 203.266,95.215 204.145 C 93.447 208.160,88.089 208.518,83.696 204.915 L 83.092 204.420 82.111 206.132 C 80.968 208.126,80.967 208.121,82.755 209.333 C 88.519 213.238,96.610 212.031,99.349 206.858 C 100.762 204.188,100.685 205.280,100.753 187.050 L 100.815 170.600 98.508 170.600 L 96.200 170.600 96.200 171.684 C 96.200 173.429,96.104 173.478,94.938 172.317 C 92.979 170.368,90.494 169.678,87.343 170.208 M153.800 170.118 C 149.250 170.946,145.848 174.115,145.459 177.888 L 145.344 179.000 147.872 179.000 L 150.400 179.000 150.400 178.439 C 150.400 176.284,152.688 174.398,155.299 174.401 C 158.614 174.405,159.800 175.961,159.800 180.310 L 159.800 182.200 157.218 182.200 C 147.967 182.200,142.998 187.764,145.392 195.442 C 147.099 200.912,154.775 202.533,158.912 198.297 L 160.000 197.182 160.000 197.802 C 160.000 198.144,160.101 198.823,160.224 199.311 L 160.447 200.200 163.050 200.200 L 165.653 200.200 165.528 199.450 C 165.460 199.038,165.272 198.070,165.109 197.300 C 164.876 196.193,164.813 194.059,164.806 187.100 C 164.795 176.476,164.671 175.478,163.071 173.161 C 161.613 171.049,157.003 169.536,153.800 170.118 M259.435 170.214 C 258.015 170.493,256.466 171.315,255.326 172.393 L 254.253 173.408 254.114 172.004 L 253.976 170.600 251.688 170.600 L 249.400 170.600 249.400 185.400 L 249.400 200.200 251.900 200.200 L 254.400 200.200 254.400 189.368 L 254.400 178.535 255.014 177.578 C 257.089 174.344,260.887 173.524,262.942 175.865 C 264.085 177.166,264.082 177.140,264.150 189.150 L 264.213 200.200 266.717 200.200 L 269.221 200.200 269.152 188.750 C 269.076 176.316,269.077 176.324,267.902 173.896 C 266.475 170.949,263.118 169.489,259.435 170.214 M284.353 170.193 C 280.361 170.921,277.408 173.447,276.507 176.904 C 275.933 179.108,275.820 179.000,278.700 179.000 C 280.985 179.000,281.200 178.969,281.200 178.636 C 281.200 174.994,286.769 172.922,289.424 175.576 C 290.365 176.518,290.598 177.403,290.599 180.050 L 290.600 182.200 287.992 182.200 C 279.781 182.200,275.499 185.936,275.856 192.787 C 275.973 195.023,276.160 195.717,277.046 197.196 C 279.529 201.338,286.561 201.872,289.888 198.172 L 290.750 197.212 290.883 198.214 C 291.157 200.283,291.027 200.200,293.995 200.200 C 295.620 200.200,296.600 200.124,296.600 199.997 C 296.600 199.886,296.405 199.144,296.167 198.347 C 295.756 196.975,295.727 196.373,295.604 186.700 C 295.460 175.497,295.456 175.460,294.188 173.545 C 292.445 170.913,288.248 169.483,284.353 170.193 M312.800 170.260 C 311.174 170.632,309.840 171.353,308.655 172.501 L 307.600 173.523 307.600 172.061 L 307.600 170.600 305.200 170.600 L 302.800 170.600 302.800 185.400 L 302.800 200.200 305.300 200.200 L 307.800 200.200 307.800 189.423 L 307.800 178.646 308.620 177.418 C 311.251 173.477,316.007 173.557,317.365 177.564 C 317.635 178.362,317.693 180.104,317.753 189.350 L 317.825 200.200 320.331 200.200 L 322.837 200.200 322.742 189.050 C 322.638 176.822,322.602 176.419,321.394 173.887 C 319.993 170.952,316.402 169.436,312.800 170.260 M338.100 170.140 C 334.618 170.601,331.858 172.541,330.327 175.601 C 328.180 179.892,328.242 190.904,330.437 195.400 C 334.782 204.298,350.000 201.111,350.000 191.304 L 350.000 190.787 347.652 190.844 L 345.304 190.900 345.168 191.854 C 344.432 197.012,337.159 198.173,334.850 193.500 C 333.734 191.243,333.412 181.652,334.352 178.663 C 336.317 172.411,344.349 173.065,345.157 179.543 L 345.301 180.700 347.651 180.756 L 350.000 180.813 349.997 180.056 C 349.967 173.646,344.709 169.263,338.100 170.140 M376.000 170.223 C 372.171 170.836,368.563 174.379,368.250 177.834 L 368.144 179.000 370.646 179.000 L 373.148 179.000 373.250 178.096 C 373.543 175.497,376.523 173.830,379.524 174.585 C 381.752 175.146,382.429 176.314,382.560 179.824 L 382.647 182.148 379.274 182.252 C 374.630 182.395,372.432 183.142,370.260 185.314 C 366.975 188.599,366.737 194.954,369.774 198.249 C 372.681 201.402,378.540 201.470,381.577 198.385 C 382.584 197.362,382.799 197.326,382.801 198.183 C 382.802 198.467,382.896 199.038,383.011 199.450 L 383.219 200.200 385.836 200.200 L 388.452 200.200 388.337 199.550 C 388.273 199.192,388.083 198.270,387.914 197.500 C 387.666 196.367,387.606 194.496,387.602 187.700 C 387.595 175.906,387.410 174.775,385.118 172.482 C 383.060 170.425,379.794 169.615,376.000 170.223 M172.400 185.400 L 172.400 200.200 174.900 200.200 L 177.400 200.200 177.400 185.400 L 177.400 170.600 174.900 170.600 L 172.400 170.600 172.400 185.400 M237.000 185.400 L 237.000 200.200 239.500 200.200 L 242.000 200.200 242.000 185.400 L 242.000 170.600 239.500 170.600 L 237.000 170.600 237.000 185.400 M355.800 185.400 L 355.800 200.200 358.300 200.200 L 360.800 200.200 360.800 185.400 L 360.800 170.600 358.300 170.600 L 355.800 170.600 355.800 185.400 M37.841 174.711 C 41.063 175.809,42.400 179.003,42.400 185.600 C 42.400 193.468,40.302 196.773,35.579 196.345 C 31.536 195.978,29.607 192.442,29.607 185.400 C 29.607 177.171,32.820 173.000,37.841 174.711 M93.312 175.306 C 93.852 175.640,94.631 176.360,95.045 176.906 L 95.798 177.900 95.799 185.316 L 95.800 192.731 95.165 193.690 C 93.052 196.881,88.069 197.114,86.048 194.116 C 83.832 190.828,83.767 180.078,85.944 176.854 C 87.496 174.557,90.933 173.835,93.312 175.306 M159.800 189.370 L 159.800 192.740 159.218 193.544 C 156.867 196.789,151.591 197.020,150.302 193.935 C 148.460 189.528,151.625 186.073,157.550 186.020 L 159.800 186.000 159.800 189.370 M290.600 189.472 L 290.600 192.944 289.789 193.864 C 286.995 197.039,281.946 196.829,281.024 193.500 C 279.763 188.946,282.585 186.064,288.350 186.018 L 290.600 186.000 290.600 189.472 M382.600 189.339 C 382.600 193.132,382.436 193.606,380.706 194.796 C 376.647 197.588,372.697 196.009,372.713 191.600 C 372.726 187.875,375.229 186.044,380.350 186.013 L 382.600 186.000 382.600 189.339 " stroke="none" fill="#040404" fill-rule="evenodd"></path><path id="path2" d="" stroke="none" fill="#0d49b8" fill-rule="evenodd"></path><path id="path3" d="" stroke="none" fill="#0d49b8" fill-rule="evenodd"></path><path id="path4" d="" stroke="none" fill="#0d49b8" fill-rule="evenodd"></path></g></svg>